Coordinates
version=1
nRows=7
nColumns=40
inDegrees=yes

Units are S.I. units (second, meters, Newtons, ...)
Angles are in degrees.

endheader
time	pelvis_tilt	pelvis_list	pelvis_rotation	pelvis_tx	pelvis_ty	pelvis_tz	hip_flexion_r	hip_adduction_r	hip_rotation_r	knee_angle_r	knee_angle_r_beta	ankle_angle_r	subtalar_angle_r	mtp_angle_r	hip_flexion_l	hip_adduction_l	hip_rotation_l	knee_angle_l	knee_angle_l_beta	ankle_angle_l	subtalar_angle_l	mtp_angle_l	lumbar_extension	lumbar_bending	lumbar_rotation	arm_flex_r	arm_add_r	arm_rot_r	elbow_flex_r	pro_sup_r	wrist_flex_r	wrist_dev_r	arm_flex_l	arm_add_l	arm_rot_l	elbow_flex_l	pro_sup_l	wrist_flex_l	wrist_dev_l
     16.20250000	     -4.20991167	     -3.06725652	      3.54038722	      0.87660450	      0.92307022	      0.44186834	      0.15253663	     -1.76715568	    -16.15802217	     26.42336757	     26.42336757	     15.21383323	     -1.54429587	    -12.35161572	     25.40734288	     -3.15829605	     -2.95638316	     24.15883716	     24.15883716	      6.12605637	    -16.01459782	      5.26730725	     -5.83039915	      4.28309330	      4.40991517	     29.70946821	    -15.16916524	    -16.40515594	     64.83163438	     45.21701494	      0.00000000	      0.00000000	     -5.78856859	     -6.42245958	      9.22552134	     22.73265589	     44.50875510	      0.00000000	      0.00000000
     16.21485714	     -4.17928155	     -2.96017399	      3.28833662	      0.87684402	      0.92416065	      0.43940610	      1.36060967	     -2.65067637	    -15.72398492	     29.46454790	     29.46454790	     13.20359521	     -2.89908891	    -16.10440095	     24.69524089	     -2.98467932	     -3.22140787	     24.03002784	     24.03002784	      6.60049585	    -16.02041315	      5.07382052	     -5.87620958	      4.27297481	      4.24670885	     28.26534469	    -14.98772993	    -16.13513842	     63.16778948	     45.28209196	      0.00000000	      0.00000000	     -4.65925823	     -6.54841275	      8.48999496	     23.62169682	     44.74433259	      0.00000000	      0.00000000
     16.22721429	     -4.09433658	     -2.86029711	      2.99271466	      0.87713622	      0.92527788	      0.43701364	      2.68699059	     -3.54783278	    -15.14700871	     32.77093847	     32.77093847	     11.20097066	     -4.19404101	    -18.79708247	     23.84179670	     -2.83005547	     -3.52197580	     23.77326110	     23.77326110	      7.06287012	    -15.95351021	      4.95873904	     -5.97957739	      4.29705482	      4.28190379	     26.84571216	    -14.93069100	    -15.92636634	     60.99908916	     45.35479806	      0.00000000	      0.00000000	     -3.31535047	     -6.70800328	      8.05968525	     24.15207114	     44.88599781	      0.00000000	      0.00000000
     16.23957143	     -3.96819606	     -2.70325348	      2.74288377	      0.87735287	      0.92617920	      0.43464167	      4.20724261	     -4.58058455	    -14.63728785	     36.51878623	     36.51878623	      9.54326105	     -4.94968471	    -19.69979949	     22.99624677	     -2.61360096	     -3.86086454	     23.60159618	     23.60159618	      7.53497636	    -15.84117754	      4.76743995	     -6.14972632	      4.23188506	      4.09480598	     25.23739935	    -14.66186601	    -15.76402514	     59.77161708	     45.38509257	      0.00000000	      0.00000000	     -1.97669025	     -6.96544019	      7.91685560	     24.75395956	     44.93951548	      0.00000000	      0.00000000
     16.25192857	     -3.90059002	     -2.56777971	      2.49715015	      0.87742933	      0.92683701	      0.43230919	      5.92064797	     -5.53571866	    -13.90756991	     40.31134304	     40.31134304	      7.40054844	     -6.05045827	    -20.67542231	     22.25868124	     -2.40137908	     -4.13467920	     23.47521351	     23.47521351	      7.95810432	    -15.79022867	      4.58351434	     -6.27360524	      4.25536303	      4.11318919	     23.49729310	    -14.56361944	    -15.61219020	     58.10475515	     45.43067498	      0.00000000	      0.00000000	     -0.53129360	     -7.24090253	      7.73818779	     25.49525710	     44.99881763	      0.00000000	      0.00000000
     16.26428571	     -3.82024631	     -2.65597228	      2.26211149	      0.87749669	      0.92743600	      0.43031635	      7.59044032	     -5.96460681	    -12.77409252	     43.62942576	     43.62942576	      3.59719828	     -9.02266500	    -24.57915942	     21.56014302	     -2.43590406	     -4.28060906	     23.40769530	     23.40769530	      8.39090732	    -15.76687971	      4.31450338	     -6.25348952	      4.43516702	      3.81591094	     22.85639677	    -14.25482359	    -15.25991985	     53.42899215	     45.58445637	      0.00000000	      0.00000000	      0.54625065	     -7.50844659	      6.93147824	     26.73712290	     45.17754779	      0.00000000	      0.00000000
     16.27664286	     -3.69077804	     -2.52658418	      2.06629522	      0.87746251	      0.92788926	      0.42817424	      9.44328563	     -6.78344429	    -11.89361717	     47.45433001	     47.45433001	      1.08709272	    -10.06316256	    -24.39720400	     20.80336943	     -2.22401807	     -4.51110654	     23.33160742	     23.33160742	      8.83610851	    -15.71526262	      4.12663265	     -6.43994889	      4.42111124	      3.69669483	     21.03096538	    -14.07915491	    -15.10032048	     52.02205964	     45.61899300	      0.00000000	      0.00000000	      2.04090680	     -7.89451516	      6.71261701	     27.54610799	     45.23927363	      0.00000000	      0.00000000
